<svg width="96" height="31" viewBox="0 0 96 31" fill="none" xmlns="http://www.w3.org/2000/svg">
<path fill-rule="evenodd" clip-rule="evenodd" d="M59.0241 23.2617C53.4597 27.7236 45.3982 30.0892 38.4599 30.0788C28.7352 30.0643 19.9846 26.1338 13.367 19.6022C12.8476 19.0894 13.3127 18.3902 13.9375 18.7879C21.0805 23.3332 29.9176 26.0772 39.0495 26.0909C45.2097 26.1001 51.9835 24.7167 58.2185 21.8459C59.1588 21.4124 59.945 22.5234 59.0241 23.2617Z" fill="#787878"/>
<path fill-rule="evenodd" clip-rule="evenodd" d="M61.6824 21.1349C60.9553 20.266 56.87 20.7163 55.0352 20.9178C54.4793 20.9791 54.3936 20.5276 54.8952 20.2006C58.1565 18.0755 63.4942 18.6987 64.1135 19.4122C64.7381 20.1327 63.9417 25.1132 60.8843 27.486C60.414 27.8512 59.9678 27.6556 60.1766 27.1725C60.8658 25.5769 62.4096 22.0037 61.6824 21.1349Z" fill="#787878"/>
<path fill-rule="evenodd" clip-rule="evenodd" d="M54.3546 4.45718L54.3579 2.23818C54.3598 1.90044 54.6198 1.67567 54.9323 1.67682L65.0733 1.69093C65.3974 1.69142 65.6574 1.92349 65.6576 2.25231L65.6541 4.15553C65.6511 4.47473 65.3765 4.89101 64.8884 5.55135L59.6246 12.8993C61.5746 12.8576 63.6368 13.1466 65.4071 14.1261C65.8061 14.3467 65.9127 14.6736 65.9437 14.9932L65.9402 17.3608C65.9397 17.6873 65.5752 18.0643 65.193 17.8674C62.0738 16.2591 57.932 16.0776 54.4781 17.8706C54.125 18.0544 53.7564 17.6818 53.7569 17.3554L53.7602 15.1044C53.7608 14.7444 53.7687 14.1283 54.1398 13.5797L60.2386 5.02578L54.9396 5.01684C54.6159 5.01636 54.3562 4.78943 54.3546 4.45718Z" fill="#787878"/>
<path fill-rule="evenodd" clip-rule="evenodd" d="M19.8052 17.8677L16.9115 17.8634C16.6361 17.8448 16.4162 17.6367 16.3946 17.3718L16.4188 2.46892C16.4192 2.17085 16.6694 1.93276 16.978 1.93322L19.6731 1.93658C19.955 1.9515 20.1812 2.16592 20.1986 2.43768L20.1957 4.38358L20.2498 4.38366C20.9551 2.50303 22.28 1.62692 24.0629 1.62958C25.8729 1.63228 27.0061 2.51207 27.8138 4.39496C28.5188 2.51433 30.1139 1.63861 31.816 1.64115C33.0316 1.64297 34.3544 2.14657 35.1632 3.27685C36.0798 4.53246 35.8884 6.35128 35.886 7.95069L35.8696 17.3551C35.8692 17.6529 35.6187 17.8913 35.3108 17.8908L32.42 17.8865C32.1295 17.8673 31.9007 17.6361 31.9012 17.3505L31.9123 9.44997C31.9132 8.82285 31.9698 7.25481 31.8354 6.65878C31.6209 5.65488 30.973 5.37164 30.1356 5.37039C29.4334 5.36934 28.7029 5.83859 28.4047 6.59108C28.1065 7.34324 28.1319 8.59752 28.1306 9.44432L28.1188 17.3436C28.1184 17.6413 27.8679 17.8797 27.5596 17.8793L24.6692 17.8749C24.3787 17.8557 24.1499 17.6245 24.1504 17.3389L24.1592 9.43839C24.1617 7.7764 24.4355 5.33059 22.3825 5.32753C20.3022 5.32442 20.3798 7.70785 20.3772 9.43275L20.3644 17.332C20.3643 17.6297 20.1138 17.8681 19.8052 17.8677Z" fill="#787878"/>
<path fill-rule="evenodd" clip-rule="evenodd" d="M74.8679 4.0268C72.7551 4.02365 72.6171 7.02744 72.6143 8.90094C72.6115 10.7748 72.5789 14.7806 74.8252 14.784C77.0448 14.7873 77.1562 11.5568 77.1592 9.58629C77.1611 8.29431 77.1101 6.74372 76.7376 5.5153C76.4178 4.44881 75.7767 4.02816 74.8679 4.0268ZM74.8459 0.893166C79.0977 0.899514 81.3913 4.71476 81.384 9.56037C81.3771 14.2441 78.8318 17.9558 74.8204 17.9498C70.6489 17.9436 68.3817 14.128 68.3887 9.37947C68.3959 4.59833 70.701 0.886978 74.8459 0.893166Z" fill="#787878"/>
<path fill-rule="evenodd" clip-rule="evenodd" d="M86.4882 17.9672L83.533 17.9628C83.2359 17.9435 83.001 17.7123 83.0015 17.4267L83.019 2.51822C83.0443 2.24587 83.2906 2.03215 83.5894 2.0326L86.3411 2.03605C86.5998 2.04928 86.8132 2.22284 86.8673 2.45414L86.8639 4.7337L86.9198 4.73378C87.7536 2.69656 88.9176 1.72633 90.9667 1.72939C92.2954 1.73138 93.5965 2.20366 94.4253 3.49075C95.1991 4.68356 95.1961 6.69073 95.194 8.13303L95.18 17.5105C95.1459 17.7749 94.9037 17.9797 94.6106 17.9793L91.6369 17.9749C91.3624 17.957 91.1413 17.7594 91.1093 17.5044L91.1214 9.41281C91.1238 7.78211 91.3212 5.39909 89.2721 5.39603C88.552 5.39496 87.8868 5.8643 87.554 6.58512C87.1374 7.49389 87.0802 8.40319 87.0787 9.40677L87.0667 17.4315C87.0609 17.7292 86.8041 17.9676 86.4882 17.9672Z" fill="#787878"/>
<path fill-rule="evenodd" clip-rule="evenodd" d="M50.4166 17.5144C50.2212 17.689 49.9402 17.7003 49.7205 17.5819C48.7433 16.7664 48.5685 16.3899 48.035 15.6146C46.4153 17.261 45.2691 17.7536 43.175 17.7504C40.695 17.7467 38.768 16.2121 38.7726 13.1486C38.7761 10.755 40.0737 9.1295 41.9214 8.33427C43.5206 7.63433 45.7532 7.51024 47.462 7.32115L47.4625 6.93821C47.4636 6.23622 47.5199 5.40654 47.1075 4.79958C46.7498 4.25657 46.0615 4.03214 45.455 4.03123C44.3316 4.02955 43.332 4.60431 43.0846 5.79824C43.0334 6.06372 42.8392 6.3263 42.5722 6.33928L39.7175 6.02599C39.4766 5.97112 39.2089 5.77707 39.279 5.40895C39.9404 1.94275 43.0699 0.899943 45.8733 0.904129C47.3061 0.906268 49.1794 1.292 50.3075 2.37896C51.7387 3.72155 51.598 5.50828 51.5951 7.45508L51.5882 12.0487C51.5862 13.4303 52.159 14.0375 52.6962 14.7827C52.8839 15.0512 52.9259 15.3704 52.6853 15.566C52.0828 16.0698 51.0125 16.9979 50.4233 17.5208L50.4166 17.5144ZM47.4575 10.3211C47.4558 11.4703 47.4817 12.4275 46.9015 13.448C46.4318 14.2771 45.6872 14.7863 44.8602 14.7851C43.7305 14.7834 43.0705 13.9205 43.0724 12.6443C43.0761 10.1333 45.3273 9.67981 47.4584 9.683L47.4575 10.3211Z" fill="#787878"/>
<path fill-rule="evenodd" clip-rule="evenodd" d="M11.8002 17.4568C11.6048 17.6314 11.3234 17.6427 11.104 17.5243C10.1266 16.7088 9.95204 16.3323 9.41823 15.5569C7.79919 17.2033 6.65302 17.6959 4.55862 17.6928C2.07828 17.6891 0.151904 16.1545 0.156478 13.091C0.160051 10.6974 1.45761 9.07188 3.30494 8.27666C4.90452 7.57671 7.13678 7.45262 8.84553 7.26353L8.8461 6.8806C8.84715 6.1786 8.90352 5.34892 8.49109 4.74196C8.1337 4.19896 7.4447 3.97452 6.8389 3.97361C5.71552 3.97194 4.71524 4.54669 4.46853 5.74063C4.41701 6.0061 4.22315 6.26868 3.95582 6.28166L1.10137 5.96837C0.860205 5.9135 0.592178 5.71945 0.662564 5.35134C1.32366 1.88513 4.45346 0.842325 7.25657 0.84651C8.68971 0.84865 10.563 1.23439 11.6914 2.32134C13.1222 3.66394 12.9819 5.45066 12.979 7.39746L12.9721 11.9911C12.9701 13.3726 13.5422 13.9798 14.0798 14.7251C14.2671 14.9936 14.3091 15.3127 14.0689 15.5084C13.4667 16.0122 12.3957 16.9403 11.8072 17.4632L11.8002 17.4568ZM8.84105 10.2635C8.83933 11.4126 8.86564 12.3699 8.28505 13.3904C7.81568 14.2195 7.07078 14.7287 6.24411 14.7275C5.11438 14.7258 4.45407 13.8629 4.45597 12.5867C4.45972 10.0757 6.71118 9.6222 8.842 9.62538L8.84105 10.2635Z" fill="#787878"/>
</svg>
