<svg width="98" height="33" viewBox="0 0 98 33" fill="none" xmlns="http://www.w3.org/2000/svg">
<path d="M41.7527 17.6107C41.7458 22.2145 38.1391 25.6017 33.7191 25.5951C29.2991 25.5885 25.7026 22.1906 25.7095 17.5867C25.7164 12.9504 29.323 9.59571 33.743 9.60231C38.163 9.60891 41.7596 12.9744 41.7527 17.6107ZM38.2412 17.6054C38.2455 14.7285 36.161 12.7569 33.7383 12.7533C31.3156 12.7497 29.2252 14.715 29.2209 17.592C29.2167 20.4401 31.3011 22.4405 33.7238 22.4441C36.1465 22.4477 38.237 20.4499 38.2412 17.6054Z" fill="#787878"/>
<path d="M59.0578 17.6365C59.0509 22.2404 55.4442 25.6276 51.0242 25.621C46.6042 25.6144 43.0077 22.2165 43.0145 17.6126C43.0215 12.9799 46.6281 9.62159 51.0481 9.62819C55.4681 9.63479 59.0647 13.0002 59.0578 17.6365ZM55.5463 17.6313C55.5506 14.7543 53.4661 12.7828 51.0434 12.7792C48.6207 12.7755 46.5303 14.7409 46.526 17.6178C46.5218 20.466 48.6062 22.4664 51.0289 22.47C53.4516 22.4736 55.542 20.4758 55.5463 17.6313Z" fill="#787878"/>
<path d="M75.653 10.1478L75.6316 24.5038C75.6228 30.4092 72.1365 32.8159 68.0194 32.8097C64.1437 32.8039 61.815 30.2083 60.9385 28.0871L63.9977 26.819C64.5401 28.1213 65.8717 29.6592 68.0204 29.6624C70.6559 29.6663 72.2915 28.0428 72.296 24.982L72.2977 23.8319L72.1752 23.8317C71.3878 24.8003 69.8723 25.6453 67.9616 25.6424C63.9634 25.6365 60.3057 22.1484 60.3123 17.6671C60.3191 13.1533 63.9872 9.64731 67.9854 9.65328C69.8926 9.65613 71.4055 10.5056 72.1937 11.4478L72.3162 11.4479L72.3182 10.1465L75.653 10.1514L75.653 10.1478ZM72.5557 17.6854C72.5599 14.8697 70.6846 12.8083 68.2944 12.8047C65.8717 12.8011 63.8389 14.8567 63.8346 17.6723C63.8305 20.4592 65.8572 22.4919 68.2799 22.4956C70.6702 22.4991 72.5515 20.4722 72.5557 17.6854Z" fill="#787878"/>
<path d="M81.1635 1.74144L81.1285 25.1754L77.7036 25.1703L77.7386 1.73633L81.1635 1.74144Z" fill="#787878"/>
<path d="M94.4824 20.3212L97.2052 22.1423C96.3236 23.4424 94.2004 25.6817 90.5375 25.6762C85.9949 25.6695 82.6076 22.1529 82.6143 17.668C82.6214 12.9127 86.0476 9.67674 90.1684 9.68289C94.318 9.68909 96.3428 12.9945 97.0035 14.7801L97.3663 15.6891L86.6702 20.1004C87.4862 21.7059 88.7576 22.5262 90.5422 22.5289C92.3303 22.5316 93.5719 21.6537 94.4824 20.3212ZM86.0973 17.4317L93.2473 14.4752C92.8558 13.476 91.6743 12.7784 90.2827 12.7763C88.4981 12.7737 86.0118 14.3455 86.0973 17.4317Z" fill="#787878"/>
<path d="M12.7482 15.4871L12.7532 12.0946L24.1854 12.1116C24.2963 12.7031 24.3529 13.4026 24.3518 14.1597C24.348 16.7049 23.6475 19.8513 21.4017 22.0904C19.2171 24.3584 16.4285 25.5656 12.7367 25.5601C5.89403 25.5499 0.148417 19.9676 0.158633 13.1249C0.168848 6.28217 5.93111 0.717087 12.7738 0.727303C16.5593 0.732954 19.2538 2.22233 21.277 4.16136L18.8796 6.55166C17.4287 5.18671 15.4619 4.12384 12.7652 4.11981C7.76831 4.11235 3.85424 8.13355 3.84678 13.1304C3.83932 18.1272 7.74137 22.1601 12.7382 22.1676C15.9793 22.1724 17.8271 20.8737 19.0114 19.6929C19.9718 18.7354 20.6048 17.3663 20.8563 15.4956L12.7482 15.4871Z" fill="#787878"/>
</svg>
