<svg width="94" height="24" viewBox="0 0 94 24" fill="none" xmlns="http://www.w3.org/2000/svg">
<path d="M0.442223 18.2244L0.469368 0.0425816L8.31737 0.0542985C9.6668 0.0563131 10.8472 0.303696 11.8585 0.796447C12.8699 1.2892 13.656 1.99764 14.2169 2.92177C14.7777 3.84591 15.0572 4.9531 15.0553 6.24334C15.0534 7.54542 14.7617 8.64288 14.1804 9.53572C13.6049 10.4286 12.796 11.1021 11.7537 11.5562C10.7173 12.0104 9.50657 12.2365 8.12163 12.2344L3.43413 12.2274L3.43986 8.3922L7.13304 8.39771C7.71306 8.39858 8.20736 8.32829 8.61595 8.18686C9.03047 8.03951 9.34747 7.8062 9.56693 7.48693C9.79231 7.16766 9.90539 6.75057 9.90616 6.23565C9.90693 5.71482 9.79511 5.29148 9.57069 4.96562C9.3522 4.63386 9.03592 4.39072 8.62185 4.23622C8.21371 4.07581 7.71963 3.99517 7.13961 3.99431L5.39956 3.99171L5.3783 18.2317L0.442223 18.2244ZM11.1081 9.89512L15.6411 18.2471L10.2789 18.2391L5.8524 9.88728L11.1081 9.89512ZM23.4887 18.5074C22.0091 18.5052 20.7429 18.2103 19.6903 17.6228C18.6377 17.0294 17.831 16.2055 17.2703 15.1511C16.7097 14.0909 16.4304 12.8624 16.4324 11.4656C16.4345 10.0688 16.7175 8.84407 17.2813 7.79141C17.8452 6.73283 18.6543 5.91136 19.7087 5.32699C20.763 4.73671 22.0301 4.44267 23.5097 4.44488C24.9893 4.44709 26.2555 4.74491 27.3081 5.33834C28.3607 5.92585 29.1674 6.74973 29.728 7.80999C30.2887 8.86434 30.568 10.0899 30.566 11.4867C30.5639 12.8835 30.2809 14.1111 29.7171 15.1697C29.1532 16.2224 28.3441 17.0439 27.2897 17.6341C26.2353 18.2185 24.9683 18.5096 23.4887 18.5074ZM23.5296 14.8853C23.9439 14.8859 24.3022 14.7473 24.6045 14.4696C24.9067 14.1919 25.1411 13.7957 25.3076 13.281C25.4741 12.7664 25.5578 12.1539 25.5589 11.4437C25.56 10.7275 25.478 10.1148 25.3131 9.60561C25.1481 9.09044 24.9149 8.69355 24.6135 8.41493C24.3121 8.13631 23.9542 7.99669 23.5399 7.99607C23.1019 7.99541 22.7259 8.13394 22.4118 8.41164C22.0977 8.68935 21.8574 9.08553 21.6909 9.6002C21.5244 10.1089 21.4407 10.7214 21.4396 11.4375C21.4385 12.1478 21.5205 12.7605 21.6854 13.2756C21.8504 13.7908 22.0895 14.1877 22.4028 14.4663C22.716 14.745 23.0916 14.8846 23.5296 14.8853ZM39.1137 18.5307C37.634 18.5285 36.3679 18.2336 35.3153 17.6461C34.2627 17.0527 33.456 16.2288 32.8953 15.1745C32.3346 14.1142 32.0553 12.8857 32.0574 11.4889C32.0595 10.0921 32.3425 8.8674 32.9063 7.81474C33.4702 6.75616 34.2793 5.93468 35.3336 5.35032C36.388 4.76004 37.655 4.466 39.1347 4.46821C40.6143 4.47042 41.8804 4.76824 42.9331 5.36167C43.9857 5.94918 44.7923 6.77306 45.353 7.83332C45.9137 8.88766 46.193 10.1132 46.1909 11.51C46.1888 12.9068 45.9059 14.1345 45.342 15.193C44.7782 16.2457 43.9691 17.0672 42.9147 17.6575C41.8603 18.2418 40.5933 18.5329 39.1137 18.5307ZM39.1546 14.9086C39.5689 14.9092 39.9272 14.7707 40.2294 14.4929C40.5317 14.2152 40.7661 13.819 40.9326 13.3044C41.0991 12.7897 41.1828 12.1772 41.1839 11.467C41.185 10.7509 41.103 10.1382 40.9381 9.62893C40.7731 9.11377 40.5399 8.71688 40.2385 8.43826C39.9371 8.15964 39.5792 8.02001 39.1649 8.0194C38.7269 8.01874 38.3509 8.15727 38.0368 8.43497C37.7227 8.71267 37.4824 9.10886 37.3159 9.62353C37.1494 10.1323 37.0656 10.7447 37.0646 11.4609C37.0635 12.1711 37.1455 12.7838 37.3104 13.2989C37.4754 13.8141 37.7145 14.211 38.0277 14.4897C38.341 14.7683 38.7166 14.9079 39.1546 14.9086ZM54.7387 18.554C53.259 18.5518 51.9929 18.257 50.9403 17.6694C49.8876 17.076 49.081 16.2521 48.5203 15.1978C47.9596 14.1375 47.6803 12.909 47.6824 11.5122C47.6845 10.1155 47.9675 8.89073 48.5313 7.83807C49.0951 6.77949 49.9042 5.95801 50.9586 5.37365C52.013 4.78337 53.28 4.48933 54.7597 4.49154C56.2393 4.49375 57.5054 4.79157 58.558 5.38499C59.6107 5.9725 60.4173 6.79639 60.978 7.85665C61.5387 8.91099 61.818 10.1366 61.8159 11.5333C61.8138 12.9301 61.5309 14.1578 60.967 15.2164C60.4032 16.269 59.5941 17.0905 58.5397 17.6808C57.4853 18.2652 56.2183 18.5562 54.7387 18.554ZM54.7796 14.9319C55.1939 14.9325 55.5522 14.794 55.8544 14.5163C56.1567 14.2385 56.3911 13.8424 56.5575 13.3277C56.724 12.813 56.8078 12.2006 56.8089 11.4903C56.8099 10.7742 56.728 10.1615 56.563 9.65226C56.3981 9.1371 56.1649 8.74021 55.8635 8.46159C55.562 8.18296 55.2042 8.04334 54.7899 8.04272C54.3519 8.04207 53.9759 8.18059 53.6618 8.4583C53.3477 8.736 53.1074 9.13219 52.9409 9.64685C52.7744 10.1556 52.6906 10.768 52.6896 11.4842C52.6885 12.1944 52.7704 12.8071 52.9354 13.3223C53.1003 13.8374 53.3395 14.2343 53.6527 14.513C53.966 14.7916 54.3416 14.9313 54.7796 14.9319ZM63.7234 18.3189L63.7505 0.137058L68.6511 0.144375L68.6408 7.06908L68.7118 7.06919C68.89 6.60781 69.1511 6.18502 69.4949 5.80083C69.8388 5.41071 70.2654 5.10063 70.7747 4.87056C71.2841 4.63458 71.8761 4.51709 72.5508 4.5181C73.4505 4.51944 74.3053 4.76042 75.1155 5.24103C75.9315 5.72166 76.5932 6.47726 77.1007 7.50785C77.6141 8.53845 77.8695 9.87643 77.8671 11.5218C77.8647 13.0961 77.6172 14.4008 77.1244 15.4358C76.6375 16.4708 75.9853 17.2422 75.1678 17.75C74.3562 18.2578 73.4651 18.511 72.4944 18.5095C71.8552 18.5086 71.2842 18.4041 70.7815 18.1962C70.2846 17.9824 69.8589 17.6947 69.5044 17.3332C69.1557 16.9657 68.887 16.551 68.6983 16.0891L68.5918 16.0889L68.5885 18.3261L63.7234 18.3189ZM68.5276 11.5078C68.5266 12.1707 68.6116 12.7449 68.7825 13.2305C68.9593 13.7102 69.2074 14.0834 69.5266 14.3502C69.8517 14.6111 70.2392 14.7419 70.689 14.7426C71.1388 14.7433 71.5207 14.6166 71.8348 14.3626C72.1548 14.1026 72.398 13.7331 72.5644 13.2539C72.7368 12.7689 72.8235 12.189 72.8245 11.5143C72.8255 10.8395 72.7405 10.2624 72.5696 9.78269C72.4046 9.29712 72.1625 8.92685 71.8433 8.67188C71.53 8.41099 71.1484 8.28021 70.6986 8.27954C70.2488 8.27887 69.861 8.4085 69.535 8.66843C69.2151 8.92245 68.9659 9.29199 68.7877 9.77705C68.6153 10.2562 68.5286 10.8331 68.5276 11.5078ZM82.468 23.4605C81.9057 23.4596 81.3701 23.4145 80.8613 23.3249C80.3524 23.2413 79.9057 23.1252 79.5212 22.9767L80.5918 19.4982C80.994 19.6408 81.3608 19.7331 81.6922 19.775C82.0295 19.817 82.3166 19.7937 82.5535 19.7053C82.7963 19.6169 82.9711 19.4484 83.078 19.2L83.1849 18.9516L78.4122 4.70441L83.5258 4.71204L85.7134 14.1613L85.8554 14.1616L88.1067 4.71888L93.2559 4.72657L88.2622 19.4919C88.0125 20.2431 87.6505 20.9173 87.1761 21.5144C86.7077 22.1174 86.0914 22.5929 85.3274 22.941C84.5634 23.289 83.6102 23.4622 82.468 23.4605Z" fill="black"/>
</svg>
