<svg width="137" height="19" viewBox="0 0 137 19" fill="none" xmlns="http://www.w3.org/2000/svg">
<path d="M4.86153 8.88823C4.71007 8.69652 4.42833 8.65355 4.23301 8.80219C4.16791 8.84464 4.12446 8.90841 4.10269 8.9722L0.189243 16.647C0.0805051 16.8809 0.166803 17.1576 0.405098 17.2644C0.470099 17.2857 0.5351 17.3071 0.621811 17.3072L6.0629 17.3154C6.23632 17.3156 6.40987 17.2308 6.47516 17.0607C7.62763 14.6795 6.91767 11.0615 4.86153 8.88823Z" fill="#787878"/>
<path d="M7.90123 1.24789C5.86268 4.37455 5.61093 8.32516 7.25985 11.6793L9.95622 17.0549C10.0454 17.2104 10.2017 17.3216 10.3805 17.3219L15.9904 17.3302C16.2586 17.3306 16.4824 17.109 16.4828 16.8427C16.4829 16.7761 16.4607 16.6872 16.4385 16.6206C16.4385 16.6206 8.90647 1.60454 8.72823 1.22693C8.61681 1.0048 8.34874 0.915611 8.12507 1.02626C8.01322 1.09268 7.94607 1.15917 7.90123 1.24789Z" fill="#787878"/>
<path fill-rule="evenodd" clip-rule="evenodd" d="M85.2654 13.8773C85.2654 13.8816 85.2654 13.8859 85.2654 13.8901L75.0422 7.91715C75.0421 7.90436 75.0421 7.89155 75.0422 7.87873L85.2654 13.8773ZM85.2654 13.8773L85.2873 13.8902C85.2834 16.5135 83.7876 18.2914 80.0768 18.2858C77.4419 18.2819 76.0376 17.6474 74.9625 17.0836L74.9676 13.6874C76.5471 14.6501 78.3249 15.168 80.1254 15.1941C81.6185 15.1964 82.0584 14.7051 82.0594 13.9791C82.0606 13.2295 81.622 12.8541 79.4928 12.3825C75.9587 11.6323 75.0502 9.98377 75.0422 7.91715L74.9763 7.87863C74.9802 5.25532 76.7611 3.66526 80.2084 3.6704C81.7236 3.62582 83.2162 3.95596 84.5985 4.63728L84.5936 7.91642C83.1674 7.21161 81.6531 6.71748 80.1161 6.71519C78.8425 6.71328 78.1613 7.0636 78.1601 7.88339C78.1592 8.51579 78.6415 8.98496 80.5512 9.43284C84.0352 10.233 85.2648 11.4033 85.2654 13.8773Z" fill="#787878"/>
<path d="M124.003 3.73145L123.982 17.4914L126.924 17.4958L126.939 7.01094L128.166 9.78752L132.328 17.5039L136.022 17.5094L136.043 3.74942L133.101 3.74503L133.088 12.6378L131.974 10.0434L128.632 3.73836L124.003 3.73145Z" fill="#787878"/>
<rect x="101.643" y="3.698" width="3.44" height="13.76" transform="rotate(0.0855408 101.643 3.698)" fill="#787878"/>
<path d="M99.0473 13.9108C99.051 11.428 97.7263 10.2549 93.9614 9.45289C91.9013 9.00479 91.3809 8.53556 91.3819 7.90316C91.3831 7.08337 92.1179 6.73313 93.4917 6.73518C95.1497 6.73766 96.7834 7.23197 98.3219 7.93694L98.3268 4.6578C96.8356 3.97632 95.2254 3.64601 93.591 3.69041C89.8722 3.68486 87.9512 5.27472 87.9473 7.89803C87.9442 9.98262 88.9129 11.6471 92.749 12.4023C95.0458 12.8742 95.519 13.2497 95.5179 13.9992C95.5168 14.7253 95.0423 15.2164 93.4317 15.214C91.4894 15.1877 89.5716 14.6695 87.8676 13.7067L87.8625 17.1029C89.0223 17.6668 90.5373 18.3015 93.3797 18.3057C97.4538 18.2884 99.0434 16.5341 99.0473 13.9108Z" fill="#787878"/>
<path d="M50.0426 3.62109L50.0221 17.3811L56.7224 17.3911L57.7665 14.4132L53.3073 14.4065L53.3234 3.62599L50.0426 3.62109Z" fill="#787878"/>
<path d="M37.1426 3.60181L37.1382 6.58124L40.6151 6.58643L40.599 17.367L43.7437 17.3717L43.7598 6.59113L47.4582 6.59665L47.4626 3.61721L37.1426 3.60181Z" fill="#787878"/>
<path fill-rule="evenodd" clip-rule="evenodd" d="M28.1579 3.58843L32.3674 3.59471L37.1221 17.3618L33.4784 17.3564L32.8029 15.0355C31.1274 15.5334 29.3622 15.5307 27.6882 15.0279L27.0058 17.3467L23.3621 17.3413L28.1579 3.58843ZM28.4844 12.2998C29.0725 12.4599 29.6608 12.5517 30.2493 12.5526C30.8377 12.5535 31.4262 12.4861 32.0149 12.3051L30.2586 6.29808L28.4844 12.2998Z" fill="#787878"/>
<path fill-rule="evenodd" clip-rule="evenodd" d="M63.4179 3.64092L67.6273 3.6472L72.382 17.4143L68.7384 17.4089L68.0629 15.088C66.3874 15.5859 64.6221 15.5832 62.9481 15.0804L62.2657 17.3992L58.6221 17.3938L63.4179 3.64092ZM63.7443 12.3523C64.3325 12.5124 64.9208 12.6042 65.5092 12.6051C66.0976 12.606 66.6862 12.5386 67.2748 12.3576L65.5186 6.35057L63.7443 12.3523Z" fill="#787878"/>
<path fill-rule="evenodd" clip-rule="evenodd" d="M112.438 3.71416L116.647 3.72045L121.402 17.4876L117.758 17.4821L117.083 15.1612C115.407 15.6591 113.642 15.6565 111.968 15.1536L111.286 17.4725L107.642 17.467L112.438 3.71416ZM112.764 12.4255C113.352 12.5856 113.941 12.6775 114.529 12.6784C115.118 12.6792 115.706 12.6119 116.295 12.4308L114.538 6.42381L112.764 12.4255Z" fill="#787878"/>
</svg>
