<svg width="96" height="21" viewBox="0 0 96 21" fill="none" xmlns="http://www.w3.org/2000/svg">
<path d="M15.754 18.3354C11.308 18.3288 7.71028 14.7183 7.71691 10.2715C7.72355 5.82447 11.3321 2.22825 15.778 2.23489C17.3451 2.23723 18.8075 2.68634 20.0423 3.46287L15.766 10.2835L23.8043 5.65819C22.9338 4.26662 21.6841 3.0668 20.1721 2.15551C18.2482 0.999755 15.5706 0.282273 12.6086 0.277851C8.38341 0.271543 4.67433 1.80139 2.60373 4.09761C1.07071 5.79506 0.156329 7.93295 0.152855 10.2601C0.149378 12.5889 1.05737 14.7311 2.58531 16.4343C4.65442 18.7396 8.30371 20.2714 12.4592 20.2776C16.6141 20.2839 20.2669 18.7617 22.3442 16.4638C22.4579 16.3373 22.5681 16.2095 22.6723 16.077L22.3609 14.9028C20.9007 16.9804 18.4853 18.3395 15.754 18.3354Z" fill="#787878"/>
<path d="M42.3786 19.8382L39.0266 7.25848C38.4881 5.22564 36.64 3.72933 34.4371 3.72604C33.8657 3.72519 33.3181 3.82645 32.8098 4.01049L25.5491 6.63843L33.0127 6.64957L34.281 11.4146C33.0454 10.3479 31.4351 9.69766 29.6708 9.69502C26.1673 9.68979 23.3274 12.0333 23.323 14.9293C23.3187 17.8255 26.1517 20.1809 29.6551 20.1862C32.1772 20.1899 34.4095 18.9585 35.7882 17.0636L36.524 19.8295L42.3786 19.8382ZM32.0994 17.8697C30.4834 17.8673 29.1753 16.5565 29.1777 14.938C29.1801 13.322 30.4921 12.0138 32.1082 12.0163C33.7242 12.0187 35.0335 13.3307 35.0311 14.9468C35.0287 16.5652 33.7155 17.8721 32.0994 17.8697Z" fill="#787878"/>
<path d="M56.1464 3.76051C55.7041 3.75985 55.2856 3.857 54.9124 4.03156L50.2498 6.19601C50.0212 4.80862 48.8179 3.74957 47.3644 3.7474C46.9245 3.74674 46.5048 3.84389 46.1268 4.01844L40.4344 6.66056L44.4339 6.66653L44.4142 19.8413L50.2689 19.85L50.2864 8.14096C50.2876 7.33305 50.9424 6.67636 51.7528 6.67757C52.5584 6.67878 53.2161 7.33742 53.2149 8.14533L53.1974 19.8544L59.0496 19.8631L59.0693 6.68838C59.0717 5.07267 57.7624 3.76304 56.1464 3.76063" fill="#787878"/>
<path d="M78.0859 12.0847C78.079 16.6641 74.3621 20.37 69.784 20.3632C65.2024 20.3563 61.4941 16.6393 61.5009 12.06C61.5077 7.48179 65.2271 3.7741 69.8088 3.78094C74.3868 3.78777 78.0927 7.50667 78.0859 12.0847ZM70.1481 6.29782C69.8889 5.32182 68.8869 4.74119 67.9112 5.00199C66.9366 5.26171 66.353 6.26431 66.6133 7.24019L69.4411 17.8465C69.7026 18.8235 70.7022 19.4035 71.678 19.1468C72.6538 18.8841 73.235 17.8821 72.9747 16.9063L70.1481 6.29782Z" fill="#787878"/>
<path d="M92.8616 3.81545C92.4181 3.81478 91.9972 3.91193 91.618 4.08648L86.9603 6.25094C86.7328 4.86355 85.5295 3.8045 84.076 3.80233C83.6362 3.80167 83.2164 3.89882 82.8373 4.07337L77.1472 6.71549L81.1455 6.72146L81.1259 19.8962L86.9793 19.9049L86.9968 8.19589C86.998 7.38798 87.654 6.73129 88.4644 6.7325C89.2725 6.73371 89.9253 7.39235 89.9241 8.20026L89.9066 19.9093L95.7637 19.9181L95.7833 6.74331C95.7857 5.12761 94.4753 3.81798 92.8616 3.81557" fill="#787878"/>
</svg>
