<svg width="131" height="32" viewBox="0 0 131 32" fill="none" xmlns="http://www.w3.org/2000/svg">
<path fill-rule="evenodd" clip-rule="evenodd" d="M73.6561 21.0893C73.6557 21.3472 73.6312 21.6148 73.5636 21.8463C73.2777 22.8142 72.2987 23.6331 71.0782 23.6312C70.0617 23.6297 69.2508 23.033 69.2527 21.7767C69.2556 19.8549 71.3157 19.3272 73.6587 19.3434L73.6561 21.0893ZM77.3351 17.7467C77.3399 14.5761 76.0262 11.7855 71.5763 11.7788C69.2925 11.7754 67.4765 12.4321 66.4861 13.0178L67.2063 15.567C68.1118 14.9811 69.5546 14.4976 70.9185 14.4996C73.1767 14.4977 73.5441 15.8185 73.5428 16.6644L73.5425 16.8644C68.6202 16.8487 65.5081 18.5959 65.5028 22.1658C65.4995 24.3462 67.0812 26.3921 69.8338 26.3962C71.5289 26.3988 72.9457 25.7054 73.7957 24.5939L73.8812 24.594C73.8812 24.594 74.4385 27.0106 77.5369 26.0927C77.3776 25.0857 77.3258 24.0112 77.3277 22.721L77.3351 17.7467Z" fill="#787878"/>
<path fill-rule="evenodd" clip-rule="evenodd" d="M0.163513 8.23218C0.163513 8.23218 3.33546 21.2421 3.84183 23.354C4.43258 25.8189 5.50252 26.7263 8.59246 26.1211L10.5968 18.0607C11.1057 16.0571 11.4461 14.6307 11.7735 12.5937L11.8309 12.5938C12.055 14.6526 12.3788 16.0655 12.7917 18.0704C12.7917 18.0704 13.5969 21.7316 14.0099 23.655C14.4244 25.5769 15.581 26.7912 18.6071 26.136L23.3835 8.26684L19.5491 8.26112L17.9161 15.9872C17.4758 18.2355 17.0798 19.9938 16.7704 22.0518L16.7167 22.0517C16.4417 20.0131 16.093 18.3244 15.6521 16.1325L13.9763 8.2528L9.98003 8.24683L8.16422 15.9221C7.64904 18.2548 7.16792 20.1385 6.86012 22.125L6.80568 22.125C6.49638 20.253 6.08403 17.8843 5.63958 15.6253C5.63958 15.6253 4.57358 10.1326 4.20044 8.2382" fill="#787878"/>
<path fill-rule="evenodd" clip-rule="evenodd" d="M30.6542 21.0251C30.6538 21.2829 30.6322 21.5506 30.5617 21.782C30.2758 22.75 29.2983 23.5688 28.0779 23.567C27.0593 23.5655 26.2514 22.9688 26.2533 21.7125C26.2561 19.7907 28.3147 19.2629 30.6568 19.2792L30.6542 21.0251ZM34.333 17.6825C34.3377 14.5119 33.0249 11.7213 28.5753 11.7146C26.2894 11.7112 24.4757 12.3679 23.484 12.9536L24.2055 15.5027C25.111 14.9169 26.5523 14.4333 27.9175 14.4354C30.1763 14.4335 30.5436 15.7543 30.5424 16.6002L30.5421 16.8002C25.6193 16.7845 22.5082 18.5317 22.5029 22.1016C22.4996 24.282 24.0797 26.3279 26.8321 26.332C28.5257 26.3346 29.9439 25.6412 30.7945 24.5297L30.8771 24.5298C30.8771 24.5298 31.4366 26.9464 34.537 26.0285C34.3747 25.0215 34.3237 23.947 34.3256 22.6568L34.333 17.6825Z" fill="#787878"/>
<path fill-rule="evenodd" clip-rule="evenodd" d="M40.5623 22.5174L40.5835 8.29249L37.1435 8.28735L37.1165 26.3473L40.5565 26.3525" fill="#787878"/>
<path fill-rule="evenodd" clip-rule="evenodd" d="M89.6034 8.36572L89.5839 21.4688C89.5812 23.2722 89.9278 24.5397 90.6753 25.3145C91.3257 25.9902 92.4001 26.4299 93.6881 26.4318C94.786 26.4335 95.8651 26.2329 96.3716 26.0494L96.3279 23.2306C95.9505 23.3204 95.5141 23.3922 94.9195 23.3913C93.658 23.3894 93.2362 22.6029 93.2387 20.9803L93.2461 15.9696L96.4721 15.9744L96.4771 12.5757L93.2512 12.5709L93.2575 8.37118" fill="#787878"/>
<path fill-rule="evenodd" clip-rule="evenodd" d="M80.1366 12.9554L80.1165 26.4116L83.8 26.4171L83.8103 19.5263C83.8109 19.1545 83.8348 18.8298 83.8921 18.5334C84.1684 17.0903 85.2529 16.1705 86.8106 16.1728C87.2375 16.1735 87.5436 16.2202 87.8716 16.2691L87.8769 12.7463C87.6014 12.6881 87.4125 12.6625 87.0666 12.662C85.69 12.6599 84.1246 13.5601 83.4654 15.4981L83.3646 15.498L83.3684 12.9602" fill="#787878"/>
<path fill-rule="evenodd" clip-rule="evenodd" d="M43.1566 12.9002L43.1365 26.3564L46.8942 26.362L46.906 18.4703C46.9066 18.1007 46.9503 17.708 47.0845 17.3698C47.3979 16.5754 48.1588 15.6458 49.3703 15.6476C50.8865 15.6498 51.5944 16.8977 51.5917 18.7L51.5802 26.369L55.3335 26.3746L55.3454 18.3874C55.3459 18.0345 55.3964 17.61 55.5046 17.2963C55.8137 16.3927 56.633 15.6584 57.7612 15.6601C59.299 15.6624 60.0344 16.8901 60.0312 19.0084L60.0202 26.3816L63.7765 26.3872L63.7883 18.4622C63.7946 14.2813 61.6157 12.624 59.1549 12.6203C58.0638 12.6187 57.2028 12.8828 56.4247 13.3467C55.7693 13.737 55.1836 14.2901 54.6704 15.0198L54.6154 15.0197C54.023 13.5688 52.6279 12.6106 50.807 12.6079C48.4688 12.6044 47.4169 13.7556 46.7763 14.7339L46.7206 14.7338L46.7233 12.9055" fill="#787878"/>
<path fill-rule="evenodd" clip-rule="evenodd" d="M116.687 10.986C117.422 10.9871 118.031 10.6145 118.113 10.1327L118.853 2.11225C118.854 1.32001 117.902 0.667839 116.703 0.666049C115.508 0.664264 114.554 1.31359 114.553 2.10583L115.268 10.1285C115.347 10.6105 115.954 10.9849 116.691 10.986" fill="#787878"/>
<path fill-rule="evenodd" clip-rule="evenodd" d="M111.706 13.5418C112.061 12.8754 112.034 12.1237 111.661 11.7909L105.153 6.81758C104.476 6.39253 103.46 6.90294 102.88 7.98839C102.302 9.07152 102.401 10.2836 103.077 10.7102L110.285 14.3685C110.738 14.5519 111.353 14.2028 111.708 13.5387" fill="#787878"/>
<path fill-rule="evenodd" clip-rule="evenodd" d="M120.803 13.5522C121.158 14.2173 121.769 14.5683 122.221 14.3862L129.443 10.7494C130.123 10.3249 130.222 9.11303 129.645 8.02816C129.071 6.94175 128.056 6.42752 127.377 6.85055L120.854 11.8044C120.48 12.1362 120.454 12.8879 120.805 13.5553" fill="#787878"/>
<path fill-rule="evenodd" clip-rule="evenodd" d="M116.671 21.3062C117.406 21.3073 118.014 21.6816 118.095 22.1636L118.811 30.1852C118.81 30.9773 117.856 31.628 116.657 31.6262C115.461 31.6244 114.51 30.9709 114.511 30.1787L115.25 22.1594C115.33 21.6776 115.939 21.3051 116.676 21.3062" fill="#787878"/>
<path fill-rule="evenodd" clip-rule="evenodd" d="M120.796 17.893C121.154 17.2259 121.765 16.8799 122.217 17.0625L129.428 20.7198C130.106 21.1472 130.202 22.3592 129.622 23.4439C129.044 24.5262 128.028 25.0389 127.35 24.6138L120.842 19.6408C120.47 19.3064 120.446 18.5555 120.798 17.8899" fill="#787878"/>
<path fill-rule="evenodd" clip-rule="evenodd" d="M111.699 17.8772C112.052 18.5439 112.024 19.2941 111.649 19.6282L105.126 24.5802C104.449 25.0032 103.434 24.4897 102.857 23.4056C102.283 22.3191 102.385 21.1056 103.062 20.6802L110.281 17.0455C110.735 16.8619 111.348 17.2113 111.701 17.8795" fill="#787878"/>
</svg>
